<?xml version="1.0" encoding="iso-8859-1"?>
<!-- Generator: Adobe Illustrator 16.0.0, SVG Export Plug-In . SVG Version: 6.00 Build 0)  -->
<!DOCTYPE svg PUBLIC "-//W3C//DTD SVG 1.1//EN" "http://www.w3.org/Graphics/SVG/1.1/DTD/svg11.dtd">
<svg version="1.1" id="Capa_1" xmlns="http://www.w3.org/2000/svg" xmlns:xlink="http://www.w3.org/1999/xlink" x="0px" y="0px"
	 width="792px" height="792px" viewBox="0 0 792 792" style="enable-background:new 0 0 792 792;" xml:space="preserve">
<g>
	<g>
		<path d="M655.797,310.532c-9.137-11.728-21.588-13.675-25.144-13.993c-2.635-0.511-5.242-0.775-7.771-0.775
			c-3.34,0-6.917,0.471-10.548,1.604l42.045-251.614c0.062-0.366,0.097-0.731,0.114-1.102c0.031-0.784,0.626-19.337-11.927-32.4
			c-7.807-8.128-18.614-12.248-32.162-12.248c-13.199,0.013-45.538,0.018-86.947,0.018L220.225,0l-39.299,0.004
			c-15.341,0.018-26.99,4.401-34.629,13.037c-10.266,11.601-8.852,25.977-8.6,27.972l42.903,256.654
			c-3.97-1.375-7.891-1.899-11.53-1.899c-2.529,0-5.146,0.264-7.785,0.775c-3.551,0.317-15.971,2.256-25.086,13.971
			c-9.31,11.958-11.614,29.563-6.851,52.332l37.013,176.562c4.216,20.196,13.138,38.458,24.474,50.094l0.11-0.11
			c4.472,4.159,16.742,11.557,18.676,12.094c1.128,0.321,2.516,0.727,4.106,0.935c1.683,0.286,2.75,0.378,2.75,0.378
			c0.242,0.022,0.542,0.036,0.784,0.036h129.613v100.693c-36.956,10.939-66.774,34.211-80.551,63.166
			c-3.467,7.296-3.657,13.504-0.56,18.451c3.119,4.996,8.776,6.815,12.759,6.855h235.049c0.309,0,0.621-0.018,0.925-0.049
			c1.326-0.141,8.138-1.167,11.852-7.604c1.961-3.397,3.494-9.248-0.321-17.84c-12.86-29.082-42.82-52.394-80.895-63.271V602.829
			h123.991c0,0,1.903-0.035,4.715-0.344c0.295,0.014,0.59,0.018,0.886,0.018c5.705,0,11.41-1.735,16.957-5.15
			c1.947-1.084,3.736-2.321,5.569-3.881l0.846-0.794c0.194-0.171,0.379-0.348,0.556-0.537l0.316-0.309
			c0.524-0.507,1.019-1.009,1.485-1.568c11.631-11.622,20.795-30.109,25.188-50.852l37.013-176.57
			C667.42,340.091,665.107,322.49,655.797,310.532z M159.601,24.598c4.168-4.613,11.35-6.957,21.342-6.97l39.282-0.004
			l303.224,0.022c41.418,0,73.766-0.004,86.987-0.018c8.477,0,14.979,2.273,19.332,6.745c6.565,6.754,7.076,16.984,7.107,19.161
			l-45.204,270.554c-0.039,0.062-0.074,0.137-0.114,0.198c-2.34,3.626-4.516,7.917-6.472,12.979
			c-0.216,0.551-0.419,1.124-0.626,1.692c-0.688,1.881-1.339,3.868-1.961,5.957c-0.207,0.696-0.423,1.375-0.621,2.088
			c-0.74,2.67-1.444,5.458-2.075,8.468l-30.514,145.553c-45.759-20.914-108.475-25.5-154.644-25.5
			c-63.981,0-116.163,8.657-152.017,25.117l-30.422-145.166c-0.595-2.846-1.255-5.503-1.952-8.045
			c-0.159-0.573-0.335-1.106-0.498-1.67c-0.599-2.062-1.22-4.036-1.881-5.899c-0.163-0.454-0.331-0.898-0.498-1.344
			c-0.78-2.102-1.59-4.084-2.445-5.935c-0.07-0.15-0.137-0.304-0.203-0.454c-1.026-2.199-2.084-4.283-3.199-6.146L155.129,38.432
			C155.054,37.299,154.772,29.941,159.601,24.598z M645.414,359.229l-37.009,176.548c-3.679,17.39-11.411,33.202-20.676,42.296
			c-0.34,0.33-0.701,0.691-0.982,1.07c-0.247,0.238-0.494,0.476-0.74,0.736l-0.282,0.269c-0.854,0.727-1.74,1.339-2.714,1.868
			c-0.146,0.083-0.291,0.167-0.437,0.255c-2.775,1.736-5.415,2.613-7.842,2.613l-0.635-0.022c-0.537-0.039-1.079-0.021-1.612,0.049
			c-2.08,0.251-3.569,0.3-3.538,0.3H436.324c-4.863,0-8.812,3.947-8.812,8.812V710.03c0,4.071,2.789,7.613,6.745,8.565
			c35.965,8.679,64.25,29.254,75.661,55.055c0.114,0.264,0.216,0.502,0.304,0.727H282.188c0.018-0.04,0.035-0.079,0.057-0.114
			c12.358-25.977,40.613-46.71,75.585-55.456c3.921-0.982,6.675-4.503,6.675-8.547V594.021c0-4.863-3.947-8.811-8.812-8.811H217.757
			c-0.269-0.036-0.678-0.093-1.185-0.186c-0.154-0.026-0.388-0.058-0.542-0.079c-0.379-0.049-0.753-0.159-1.128-0.273
			c-2.348-1.393-9.776-6.41-11.869-7.913c-8.86-9.336-15.922-24.219-19.42-40.96l-37.018-176.57
			c-3.568-17.042-2.414-30.069,3.335-37.674c5.181-6.851,12.71-7.446,12.913-7.463c0.485-0.018,0.965-0.08,1.441-0.176
			c1.661-0.348,3.269-0.524,4.78-0.524c7.216,0,12.623,4.388,16.698,10.71c1.925,3.005,3.657,6.583,5.177,10.693
			c0.031,0.083,0.062,0.167,0.093,0.251c0.718,1.961,1.383,4.054,2.009,6.252c0.053,0.189,0.11,0.379,0.159,0.568
			c0.634,2.287,1.22,4.684,1.749,7.217l32.774,156.4c0.573,2.74,2.419,5.049,4.965,6.208c2.547,1.167,5.499,1.04,7.944-0.317
			c33.171-18.465,86.424-28.228,154.004-28.228c68.479,0,122.657,9.887,156.674,28.598c0.635,0.348,1.305,0.604,1.987,0.784
			c0.26,0.07,0.529,0.075,0.793,0.119c0.432,0.075,0.859,0.154,1.296,0.163c0.057,0,0.109,0.021,0.167,0.021
			c0.419,0,0.833-0.074,1.247-0.132c0.176-0.026,0.353-0.022,0.524-0.058c0.651-0.132,1.291-0.33,1.907-0.612
			c2.538-1.167,4.371-3.463,4.948-6.198l32.862-156.749c0.265-1.265,0.546-2.485,0.837-3.688c0.102-0.428,0.212-0.855,0.322-1.282
			c0.197-0.78,0.4-1.542,0.607-2.291c0.137-0.489,0.269-0.974,0.41-1.458c0.198-0.674,0.4-1.331,0.607-1.978
			c0.154-0.494,0.309-0.987,0.472-1.476c0.216-0.647,0.445-1.269,0.674-1.89c0.163-0.454,0.322-0.912,0.494-1.357
			c0.321-0.828,0.651-1.617,0.991-2.401c0.277-0.644,0.568-1.273,0.867-1.899c0.256-0.538,0.503-1.088,0.767-1.6
			c0.37-0.722,0.767-1.414,1.163-2.102c0.102-0.176,0.203-0.37,0.305-0.546c4.133-6.877,9.736-11.72,17.318-11.72
			c1.508,0,3.111,0.176,4.764,0.52c0.476,0.102,0.955,0.163,1.444,0.181c0.075,0.004,7.613,0.608,12.804,7.27
			C647.792,328.936,649.008,342.034,645.414,359.229z"/>
		<path d="M253.669,437.137c0.736,4.3,4.458,7.331,8.675,7.331c0.494,0,0.991-0.039,1.494-0.123
			c4.798-0.819,8.023-5.371,7.204-10.169l-64.62-378.896c-0.819-4.802-5.393-8.041-10.168-7.208
			c-4.798,0.82-8.023,5.371-7.204,10.169L253.669,437.137z"/>
		<path d="M387.182,588.392c-4.864,0-8.812,3.947-8.812,8.812v111.611c0,4.864,3.947,8.812,8.812,8.812
			c4.864,0,8.812-3.947,8.812-8.812V597.203C395.993,592.335,392.05,588.392,387.182,588.392z"/>
		<path d="M243.263,554.612c-27.078,0-32.202-29.417-32.418-30.743c-0.753-4.794-5.229-8.076-10.045-7.34
			c-4.812,0.74-8.107,5.238-7.367,10.045c2.428,15.795,15.971,45.657,49.83,45.657c4.864,0,8.812-3.948,8.812-8.812
			C252.074,558.556,248.126,554.612,243.263,554.612z"/>
	</g>
</g>
<g>
</g>
<g>
</g>
<g>
</g>
<g>
</g>
<g>
</g>
<g>
</g>
<g>
</g>
<g>
</g>
<g>
</g>
<g>
</g>
<g>
</g>
<g>
</g>
<g>
</g>
<g>
</g>
<g>
</g>
</svg>
